<?xml version="1.0" encoding="UTF-8"?>
<svg id="Camada_1" xmlns="http://www.w3.org/2000/svg" version="1.1" width="20px" height="20px" viewBox="0 0 28.35 28.35">
  <!-- Generator: Adobe Illustrator 30.0.0, SVG Export Plug-In . SVG Version: 2.1.1 Build 123)  -->
  <defs>
    <style>
      .st0 {
        fill: #fff;
      }

      .st1 {
        fill: #d97035;
      }
    </style>
  </defs>
  <circle class="st1" cx="14.17" cy="14.17" r="14.17"/>
  <g>
    <path class="st0" d="M12.09,6.8v14.91h-2.54v-12.01l-1.9.89v-2.75l1.86-1.05h2.58Z"/>
    <path class="st0" d="M13.79,21.7v-2.33l3.01-5.23c.46-.79.79-1.5,1-2.12s.32-1.16.32-1.62v-.19c0-.36-.07-.63-.21-.81-.14-.17-.36-.26-.66-.26-.34,0-.58.11-.73.33-.15.22-.23.56-.23,1.03v.53h-2.58v-.53c0-1.3.29-2.27.87-2.9.58-.64,1.45-.95,2.63-.95s2.05.29,2.63.89c.58.59.87,1.49.87,2.69v.2c0,.55-.12,1.18-.36,1.89-.24.71-.6,1.53-1.09,2.43l-2.37,4.46h3.79v2.5h-6.89Z"/>
  </g>
</svg>