<?xml version="1.0" encoding="UTF-8"?>
<svg id="Camada_1" xmlns="http://www.w3.org/2000/svg" version="1.1" viewBox="0 0 28.35 28.35">
  <!-- Generator: Adobe Illustrator 30.0.0, SVG Export Plug-In . SVG Version: 2.1.1 Build 123)  -->
  <defs>
    <style>
      .st0 {
        fill: #fff;
      }

      .st1 {
        fill: #d97035;
      }
    </style>
  </defs>
  <circle class="st1" cx="14.17" cy="14.17" r="14.17"/>
  <g>
    <path class="st0" d="M12.05,6.72v14.91h-2.54v-12.01l-1.9.89v-2.75l1.86-1.05h2.58Z"/>
    <path class="st0" d="M17.28,21.78c-.72,0-1.34-.13-1.86-.38-.52-.26-.91-.63-1.18-1.12-.27-.49-.41-1.08-.41-1.77v-2.36c0-.54.16-1.03.47-1.46.31-.43.75-.77,1.31-1-.51-.2-.91-.47-1.2-.82s-.43-.74-.43-1.17v-2.09c0-.97.29-1.72.88-2.25.58-.53,1.4-.79,2.43-.79s1.87.26,2.45.79c.58.53.87,1.28.87,2.25v2.09c0,.44-.15.83-.44,1.17-.29.35-.7.62-1.23.82.57.24,1.02.57,1.33,1s.47.92.47,1.46v2.36c0,.69-.14,1.28-.41,1.77-.27.49-.67.86-1.18,1.12-.51.26-1.14.38-1.87.38ZM17.28,19.33c.31,0,.55-.08.72-.24.17-.16.26-.37.26-.65v-2.49c0-.29-.09-.52-.26-.69-.17-.16-.41-.25-.72-.25s-.54.08-.71.25-.26.4-.26.7v2.5c0,.27.09.49.26.64.17.15.41.23.7.23ZM17.28,12.6c.28,0,.5-.09.65-.27.15-.18.23-.43.23-.74v-1.7c0-.29-.08-.51-.23-.68-.15-.16-.37-.25-.65-.25s-.49.08-.65.25-.24.39-.24.69v1.71c0,.31.08.56.24.73.16.17.37.26.65.26Z"/>
  </g>
</svg>