<?xml version="1.0" encoding="UTF-8"?>
<svg id="Camada_1" xmlns="http://www.w3.org/2000/svg" version="1.1" viewBox="0 0 28.35 28.35">
  <!-- Generator: Adobe Illustrator 30.0.0, SVG Export Plug-In . SVG Version: 2.1.1 Build 123)  -->
  <defs>
    <style>
      .st0 {
        fill: #fff;
      }

      .st1 {
        fill: #d97035;
      }
    </style>
  </defs>
  <circle class="st1" cx="14.17" cy="14.17" r="14.17"/>
  <path class="st0" d="M14.17,21.7c-1.09,0-1.94-.31-2.54-.92-.6-.61-.9-1.48-.9-2.6v-1.95c0-.79.08-1.45.24-2s.37-1.13.62-1.75l2.34-5.83h2.71l-2.88,7.43-.81-.37c.49-.68,1.07-1.02,1.74-1.02.93,0,1.65.29,2.17.86s.77,1.38.77,2.42v2.19c0,1.11-.3,1.98-.91,2.6-.61.62-1.45.93-2.55.93ZM14.17,19.25c.31,0,.54-.09.71-.26s.25-.43.25-.77v-2.06c0-.32-.08-.57-.25-.74-.17-.17-.4-.26-.71-.26s-.53.09-.7.27-.26.43-.26.75v2.05c0,.34.09.6.26.77s.4.26.7.26Z"/>
</svg>