<?xml version="1.0" encoding="UTF-8"?>
<svg id="Camada_1" xmlns="http://www.w3.org/2000/svg" version="1.1" viewBox="0 0 28.35 28.35">
  <!-- Generator: Adobe Illustrator 30.0.0, SVG Export Plug-In . SVG Version: 2.1.1 Build 123)  -->
  <defs>
    <style>
      .st0 {
        fill: #fff;
      }

      .st1 {
        fill: #d97035;
      }
    </style>
  </defs>
  <circle class="st1" cx="14.17" cy="14.17" r="14.17"/>
  <path class="st0" d="M14.16,21.7c-1.06,0-1.88-.29-2.47-.86s-.88-1.38-.88-2.43v-.69h2.54v.69c0,.25.07.44.22.57s.34.21.59.21.46-.07.62-.22.23-.34.23-.59v-3.45c0-.24-.06-.42-.18-.54s-.3-.18-.52-.18c-.21,0-.38.06-.5.17-.12.11-.18.28-.17.49h-2.49V6.64h6.29v2.5h-3.74v3.11c.22-.18.45-.32.7-.42.25-.1.5-.14.75-.14.77,0,1.36.28,1.78.85.42.57.63,1.37.63,2.4v3.45c0,1.05-.3,1.87-.89,2.45-.59.58-1.42.87-2.5.87Z"/>
</svg>