<?xml version="1.0" encoding="UTF-8"?>
<svg id="Camada_1" xmlns="http://www.w3.org/2000/svg" version="1.1" width="20px" height="20px" viewBox="0 0 28.35 28.35">
  <!-- Generator: Adobe Illustrator 30.0.0, SVG Export Plug-In . SVG Version: 2.1.1 Build 123)  -->
  <defs>
    <style>
      .st0 {
        fill: #fff;
      }

      .st1 {
        fill: #d97035;
      }
    </style>
  </defs>
  <circle class="st1" cx="14.17" cy="14.17" r="14.17"/>
  <g>
    <path class="st0" d="M12.04,6.72v14.91h-2.54v-12.01l-1.9.89v-2.75l1.86-1.05h2.58Z"/>
    <path class="st0" d="M17.31,21.78c-1.09,0-1.94-.31-2.54-.94-.6-.63-.9-1.51-.9-2.65v-8.04c0-1.14.3-2.02.9-2.65.6-.62,1.45-.94,2.54-.94s1.94.31,2.54.94c.6.63.9,1.51.9,2.65v8.04c0,1.14-.3,2.03-.9,2.65-.6.62-1.45.94-2.54.94ZM17.31,19.28c.28,0,.5-.1.66-.29.16-.19.24-.46.24-.8v-8.04c0-.34-.08-.61-.24-.8-.16-.19-.38-.29-.66-.29s-.49.1-.66.29-.25.46-.25.8v8.04c0,.34.08.61.25.8s.38.29.66.29Z"/>
  </g>
</svg>