<?xml version="1.0" encoding="UTF-8"?>
<svg id="Camada_1" xmlns="http://www.w3.org/2000/svg" version="1.1" viewBox="0 0 28.35 28.35">
  <!-- Generator: Adobe Illustrator 30.0.0, SVG Export Plug-In . SVG Version: 2.1.1 Build 123)  -->
  <defs>
    <style>
      .st0 {
        fill: #fff;
      }

      .st1 {
        fill: #d97035;
      }
    </style>
  </defs>
  <circle class="st1" cx="14.17" cy="14.17" r="14.17"/>
  <g>
    <path class="st0" d="M12.2,6.72v14.91h-2.54v-12.01l-1.9.89v-2.75l1.86-1.05h2.58Z"/>
    <path class="st0" d="M17.1,21.78c-.74,0-1.37-.13-1.9-.4-.53-.27-.94-.65-1.22-1.15-.28-.5-.42-1.11-.42-1.82v-.91h2.56v.86c0,.29.08.52.26.68.17.16.41.24.72.24s.53-.08.69-.26c.17-.17.25-.41.25-.72v-2.12c0-.34-.08-.6-.26-.78-.17-.18-.41-.27-.71-.27h-.81v-2.5h.81c.22,0,.4-.08.53-.25.13-.16.19-.4.19-.7v-1.85c0-.24-.06-.42-.18-.55s-.29-.2-.51-.2c-.23,0-.42.07-.55.2-.13.13-.2.32-.2.57v1.01h-2.55v-1.01c0-1.05.29-1.85.88-2.43.59-.57,1.41-.86,2.46-.86s1.81.29,2.36.86c.56.57.83,1.38.83,2.42v1.99c0,.38-.12.75-.37,1.1-.25.35-.6.66-1.05.92.53.17.94.45,1.23.83s.44.84.44,1.36v2.27c0,1.11-.31,1.96-.92,2.57-.61.61-1.47.91-2.57.91Z"/>
  </g>
</svg>