<?xml version="1.0" encoding="UTF-8"?>
<svg id="Camada_1" xmlns="http://www.w3.org/2000/svg" version="1.1" width="20px" height="20px" viewBox="0 0 28.35 28.35">
  <!-- Generator: Adobe Illustrator 30.0.0, SVG Export Plug-In . SVG Version: 2.1.1 Build 123)  -->
  <defs>
    <style>
      .st0 {
        fill: #fff;
      }

      .st1 {
        fill: #d97035;
      }
    </style>
  </defs>
  <circle class="st1" cx="14.17" cy="14.17" r="14.17"/>
  <g>
    <path class="st0" d="M12.18,6.65v14.91h-2.54v-12.01l-1.9.89v-2.75l1.86-1.05h2.58Z"/>
    <path class="st0" d="M17.15,21.7c-1.09,0-1.94-.31-2.54-.92-.6-.61-.9-1.48-.9-2.6v-1.95c0-.79.08-1.45.24-2,.16-.55.37-1.13.62-1.75l2.34-5.83h2.71l-2.88,7.43-.81-.37c.48-.68,1.07-1.02,1.74-1.02.93,0,1.65.29,2.17.86.52.57.77,1.38.77,2.42v2.19c0,1.11-.3,1.98-.91,2.6-.61.62-1.46.93-2.55.93ZM17.15,19.25c.31,0,.54-.09.71-.26.17-.17.25-.43.25-.77v-2.06c0-.32-.08-.57-.25-.74-.17-.17-.41-.26-.71-.26s-.53.09-.7.27c-.17.18-.26.43-.26.75v2.05c0,.34.08.6.26.77.17.17.4.26.7.26Z"/>
  </g>
</svg>