<?xml version="1.0" encoding="UTF-8"?>
<svg id="Camada_1" xmlns="http://www.w3.org/2000/svg" version="1.1" width="20px" height="20px" viewBox="0 0 28.35 28.35">
  <!-- Generator: Adobe Illustrator 30.0.0, SVG Export Plug-In . SVG Version: 2.1.1 Build 123)  -->
  <defs>
    <style>
      .st0 {
        fill: #fff;
      }

      .st1 {
        fill: #d97035;
      }
    </style>
  </defs>
  <circle class="st1" cx="14.17" cy="14.17" r="14.17"/>
  <path class="st0" d="M10.76,21.7v-2.33l3-5.23c.46-.79.79-1.5,1-2.12s.32-1.16.32-1.62v-.19c0-.36-.07-.63-.21-.81-.14-.17-.36-.26-.66-.26-.33,0-.58.11-.73.33-.15.22-.23.56-.23,1.03v.53h-2.58v-.53c0-1.3.29-2.27.87-2.9.58-.64,1.45-.95,2.63-.95s2.05.3,2.63.89.87,1.49.87,2.69v.19c0,.55-.12,1.18-.36,1.89s-.6,1.53-1.09,2.44l-2.37,4.46h3.79v2.5h-6.89Z"/>
</svg>