<?xml version="1.0" encoding="UTF-8"?>
<svg id="Camada_1" xmlns="http://www.w3.org/2000/svg" version="1.1" viewBox="0 0 28.35 28.35">
  <!-- Generator: Adobe Illustrator 30.0.0, SVG Export Plug-In . SVG Version: 2.1.1 Build 123)  -->
  <defs>
    <style>
      .st0 {
        fill: #fff;
      }

      .st1 {
        fill: #d97035;
      }
    </style>
  </defs>
  <circle class="st1" cx="14.17" cy="14.17" r="14.17"/>
  <g>
    <path class="st0" d="M12.18,6.79v14.91h-2.54v-12.01l-1.9.89v-2.75l1.86-1.05h2.58Z"/>
    <path class="st0" d="M14.88,21.7l2.7-7.43.81.37c-.23.32-.5.57-.82.75-.31.18-.63.27-.96.27-.92,0-1.64-.29-2.15-.86-.51-.57-.76-1.38-.76-2.42v-2.19c0-1.12.3-1.99.91-2.6.6-.62,1.45-.92,2.55-.92s1.94.3,2.54.91.9,1.47.9,2.59v1.96c0,.79-.09,1.46-.28,2.04-.18.57-.4,1.18-.63,1.83l-2.1,5.72h-2.71ZM17.16,13.21c.3,0,.54-.09.7-.27.17-.18.25-.43.25-.74v-2.1c0-.34-.08-.59-.25-.75-.17-.16-.4-.24-.7-.24s-.54.08-.71.24c-.17.16-.26.41-.26.75v2.11c0,.31.08.56.26.74.17.18.41.27.71.27Z"/>
  </g>
</svg>