<?xml version="1.0" encoding="UTF-8"?>
<svg id="Camada_1" xmlns="http://www.w3.org/2000/svg" version="1.1" width="20px" height="20px" viewBox="0 0 28.35 28.35">
  <!-- Generator: Adobe Illustrator 30.0.0, SVG Export Plug-In . SVG Version: 2.1.1 Build 123)  -->
  <defs>
    <style>
      .st0 {
        fill: #fff;
      }

      .st1 {
        fill: #d97035;
      }
    </style>
  </defs>
  <circle class="st1" cx="14.17" cy="14.17" r="14.17"/>
  <path class="st0" d="M11.9,21.7l2.7-7.43.81.37c-.23.32-.5.57-.82.75-.31.18-.63.27-.96.27-.92,0-1.64-.29-2.15-.86-.51-.57-.76-1.38-.76-2.42v-2.19c0-1.12.3-1.99.91-2.6.6-.62,1.45-.92,2.55-.92s1.94.3,2.54.91.9,1.47.9,2.59v1.96c0,.79-.09,1.46-.28,2.04s-.4,1.18-.64,1.83l-2.1,5.72h-2.71ZM14.18,13.21c.3,0,.54-.09.7-.27.17-.18.25-.43.25-.74v-2.1c0-.34-.08-.59-.25-.75-.17-.16-.4-.24-.7-.24s-.54.08-.71.24c-.17.16-.26.41-.26.75v2.11c0,.31.09.56.26.74s.41.27.71.27Z"/>
</svg>